<?xml version="1.0" standalone="no"?><!DOCTYPE svg PUBLIC "-//W3C//DTD SVG 1.1//EN" "http://www.w3.org/Graphics/SVG/1.1/DTD/svg11.dtd"><svg t="1563003868574" class="icon" viewBox="0 0 1024 1024" version="1.1" xmlns="http://www.w3.org/2000/svg" p-id="1654" xmlns:xlink="http://www.w3.org/1999/xlink" width="200" height="200"><defs><style type="text/css"></style></defs><path d="M512 78.769231C250.092308 78.769231 41.353846 271.753846 41.353846 510.030769c0 74.830769 21.661538 145.723077 57.107692 208.738462 5.907692 9.846154 7.876923 21.661538 3.938462 33.476923l-61.046154 167.384615c-5.907692 15.753846 9.846154 29.538462 25.6 25.6l169.353846-64.984615c9.846154-3.938462 21.661538-1.969231 33.476923 3.938461 70.892308 39.384615 155.569231 63.015385 246.153847 63.015385C773.907692 945.230769 984.615385 754.215385 984.615385 513.969231 982.646154 271.753846 771.938462 78.769231 512 78.769231zM275.692308 590.769231c-43.323077 0-78.769231-35.446154-78.769231-78.769231s35.446154-78.769231 78.769231-78.769231 78.769231 35.446154 78.76923 78.769231-35.446154 78.769231-78.76923 78.769231z m236.307692 0c-43.323077 0-78.769231-35.446154-78.769231-78.769231s35.446154-78.769231 78.769231-78.769231 78.769231 35.446154 78.769231 78.769231-35.446154 78.769231-78.769231 78.769231z m236.307692 0c-43.323077 0-78.769231-35.446154-78.76923-78.769231s35.446154-78.769231 78.76923-78.769231 78.769231 35.446154 78.769231 78.769231-35.446154 78.769231-78.769231 78.769231z" p-id="1655"></path></svg>