<?xml version="1.0" standalone="no"?><!DOCTYPE svg PUBLIC "-//W3C//DTD SVG 1.1//EN" "http://www.w3.org/Graphics/SVG/1.1/DTD/svg11.dtd"><svg t="1563006498986" class="icon" viewBox="0 0 1024 1024" version="1.1" xmlns="http://www.w3.org/2000/svg" p-id="3983" xmlns:xlink="http://www.w3.org/1999/xlink" width="200" height="200"><defs><style type="text/css"></style></defs><path d="M874.338462 374.153846H653.784615c-51.2 0-82.707692-31.507692-82.707692-82.707692V70.892308c0-17.723077-13.784615-31.507692-31.507692-31.507693H212.676923C161.476923 39.384615 118.153846 82.707692 118.153846 133.907692v756.184616c0 51.2 43.323077 94.523077 94.523077 94.523077h598.646154c51.2 0 94.523077-43.323077 94.523077-94.523077V405.661538c0-17.723077-13.784615-31.507692-31.507692-31.507692z m25.6-120.123077L691.2 45.292308c-3.938462-3.938462-11.815385-5.907692-17.723077-5.907693-11.815385 0-23.630769 9.846154-23.630769 21.661539v167.384615c0 35.446154 31.507692 66.953846 66.953846 66.953846h167.384615c11.815385 0 21.661538-11.815385 21.661539-23.630769 0-5.907692-1.969231-13.784615-5.907692-17.723077z" p-id="3984"></path></svg>