<?xml version="1.0" standalone="no"?><!DOCTYPE svg PUBLIC "-//W3C//DTD SVG 1.1//EN" "http://www.w3.org/Graphics/SVG/1.1/DTD/svg11.dtd"><svg t="1568437971915" class="icon" viewBox="0 0 1024 1024" version="1.1" xmlns="http://www.w3.org/2000/svg" p-id="2942" xmlns:xlink="http://www.w3.org/1999/xlink" width="200" height="200"><defs><style type="text/css"></style></defs><path d="M85.333333 256l-85.333333 0 0 213.333333 0.426667 0-0.426667 384c0 47.146667 38.186667 85.333333 85.333333 85.333333l768 0 0-85.333333-768 0 0-597.333333zM938.666667 170.666667l-341.333333 0-85.333333-85.333333-256 0c-47.146667 0-84.906667 38.186667-84.906667 85.333333l-0.426667 512c0 47.146667 38.186667 85.333333 85.333333 85.333333l682.666667 0c47.146667 0 85.333333-38.186667 85.333333-85.333333l0-426.666667c0-47.146667-38.186667-85.333333-85.333333-85.333333zM298.666667 640l192-256 149.333333 192.213333 106.666667-128.213333 149.333333 192-597.333333 0z" p-id="2943"></path></svg>