<?xml version="1.0" standalone="no"?><!DOCTYPE svg PUBLIC "-//W3C//DTD SVG 1.1//EN" "http://www.w3.org/Graphics/SVG/1.1/DTD/svg11.dtd"><svg t="1563009347984" class="icon" viewBox="0 0 1024 1024" version="1.1" xmlns="http://www.w3.org/2000/svg" p-id="2452" width="200" height="200" xmlns:xlink="http://www.w3.org/1999/xlink"><defs><style type="text/css"></style></defs><path d="M458.269867 917.220267 565.768533 917.3056C575.261867 876.9856 603.400533 843.406933 642.4832 827.108267 681.117867 811.150933 725.768533 815.0976 760.584533 836.622933L836.680533 760.4416C814.8992 725.220267 811.080533 681.614933 827.2512 642.510933 843.400533 603.428267 876.893867 575.268267 917.256533 565.7536L917.341867 458.148267C876.9792 448.718933 843.4432 420.5376 827.2512 381.348267 811.037867 342.2656 814.856533 298.702933 836.6592 263.5456L760.4352 187.342933C725.597867 208.782933 680.968533 212.686933 642.5472 196.7936 603.421867 180.430933 575.2832 146.894933 565.789867 106.660267L458.248533 106.660267C448.7552 146.9376 420.616533 180.494933 381.5552 196.772267 343.005867 212.7296 298.440533 208.782933 263.6032 187.342933L187.3792 263.5456C209.181867 298.724267 213.000533 342.286933 196.7872 381.3696 180.637867 420.452267 147.144533 448.612267 106.781867 458.1056L106.717867 565.710933C147.0592 575.1616 180.616533 603.3216 196.7872 642.532267 212.957867 681.614933 209.1392 725.220267 187.357867 760.4416L263.453867 836.622933C298.269867 815.118933 343.005867 811.172267 381.4912 827.086933 420.616533 843.3856 448.7552 876.942933 458.269867 917.220267L458.269867 917.220267ZM603.6352 960.014933 420.424533 959.844267 418.8032 940.260267C416.157867 907.4496 395.592533 879.182933 365.149867 866.4896 335.1552 854.116267 299.613867 859.876267 275.080533 880.804267L260.0832 893.6256 130.4192 763.8336 143.1552 748.836267C164.488533 723.748267 169.949867 689.252267 157.384533 658.830933 144.776533 628.324267 116.5312 607.780267 83.677867 605.220267L64.008533 603.662933 64.157867 420.2816 83.741867 418.6816C116.5952 415.9936 144.8192 395.4496 157.384533 365.0496 169.9712 334.628267 164.552533 300.2176 143.176533 275.1936L130.397867 260.196267 260.189867 130.404267 275.165867 143.1616C299.741867 164.046933 335.133867 169.7856 365.213867 157.348267 395.592533 144.6976 416.157867 116.430933 418.8032 83.620267L420.424533 63.9936 603.613867 63.9936 605.2352 83.620267C607.880533 116.388267 628.4672 144.654933 658.909867 157.390933 688.797867 169.742933 724.296533 164.046933 748.872533 143.1616L763.848533 130.404267 893.640533 260.196267 880.861867 275.1936C859.485867 300.2176 854.0672 334.628267 866.6752 365.028267 879.261867 395.556267 907.5072 416.100267 940.360533 418.660267L960.0512 420.2176 959.880533 603.598933 940.296533 605.198933C907.4432 607.886933 879.2192 628.4096 866.6752 658.8096 854.088533 689.252267 859.549867 723.748267 880.8832 748.836267L893.6192 763.8336 763.9552 893.6256 748.957867 880.804267C724.4672 859.854933 688.989867 854.052267 658.824533 866.532267 628.445867 879.182933 607.880533 907.492267 605.2352 940.388267L603.6352 960.014933Z" p-id="2453"></path><path d="M512.021333 341.333333C417.92 341.333333 341.354667 417.898667 341.354667 512 341.354667 606.101333 417.92 682.666667 512.021333 682.666667 606.122667 682.666667 682.688 606.101333 682.688 512 682.688 417.898667 606.122667 341.333333 512.021333 341.333333M512.021333 725.333333C394.389333 725.333333 298.688 629.632 298.688 512 298.688 394.368 394.389333 298.666667 512.021333 298.666667 629.653333 298.666667 725.354667 394.368 725.354667 512 725.354667 629.632 629.653333 725.333333 512.021333 725.333333" p-id="2454"></path></svg>