<?xml version="1.0" standalone="no"?><!DOCTYPE svg PUBLIC "-//W3C//DTD SVG 1.1//EN" "http://www.w3.org/Graphics/SVG/1.1/DTD/svg11.dtd"><svg t="1563004741681" class="icon" viewBox="0 0 1024 1024" version="1.1" xmlns="http://www.w3.org/2000/svg" p-id="3155" xmlns:xlink="http://www.w3.org/1999/xlink" width="200" height="200"><defs><style type="text/css"></style></defs><path d="M341.333333 375.466667a33.962667 33.962667 0 0 1-24.132266-10.001067l-256-256a34.133333 34.133333 0 1 1 48.264533-48.264533l256 256A34.133333 34.133333 0 0 1 341.333333 375.466667z" p-id="3156"></path><path d="M597.333333 955.733333a17.015467 17.015467 0 0 1-12.066133-5.000533l-426.666667-426.666667A17.015467 17.015467 0 0 1 153.6 512V170.666667a17.066667 17.066667 0 0 1 17.066667-17.066667h341.333333c4.522667 0 8.874667 1.792 12.066133 5.000533l426.666667 426.666667a17.0496 17.0496 0 0 1 0 24.132267l-341.333333 341.333333A17.015467 17.015467 0 0 1 597.333333 955.733333zM187.733333 504.9344l409.6 409.6L914.5344 597.333333l-409.6-409.6H187.733333v317.201067zM597.333333 785.066667a17.015467 17.015467 0 0 1-12.066133-5.000534l-213.333333-213.333333a17.0496 17.0496 0 0 1 0-24.132267l170.666666-170.666666a17.0496 17.0496 0 0 1 24.132267 0l213.333333 213.333333a17.0496 17.0496 0 0 1 0 24.132267l-170.666666 170.666666A17.015467 17.015467 0 0 1 597.333333 785.066667zM408.132267 554.666667L597.333333 743.867733 743.867733 597.333333 554.666667 408.132267 408.132267 554.666667z" p-id="3157"></path><path d="M401.92 280.746667c16.503467 17.066667 24.746667 37.256533 24.746667 60.586666s-8.2432 43.52-24.746667 60.586667C385.416533 418.423467 365.226667 426.666667 341.333333 426.666667c-23.330133 0-43.229867-8.2432-59.733333-24.746667-17.066667-17.066667-25.6-37.256533-25.6-60.586667s8.533333-43.52 25.6-60.586666c16.503467-16.503467 36.4032-24.746667 59.733333-24.746667 23.893333 0 44.0832 8.2432 60.586667 24.746667z" p-id="3158"></path></svg>