<?xml version="1.0" standalone="no"?><!DOCTYPE svg PUBLIC "-//W3C//DTD SVG 1.1//EN" "http://www.w3.org/Graphics/SVG/1.1/DTD/svg11.dtd"><svg t="1579154625660" class="icon" viewBox="0 0 1025 1024" version="1.1" xmlns="http://www.w3.org/2000/svg" p-id="2319" xmlns:xlink="http://www.w3.org/1999/xlink" width="200.1953125" height="200"><defs><style type="text/css"></style></defs><path d="M981.76 81.024c-56.384-56.896-147.712-56.896-204.032 0l-360.704 364.16 204.032 206.08 360.704-364.16C1038.144 230.144 1038.144 137.92 981.76 81.024zM539.456 449.664l-24.32-24.512 305.024-308.032c6.656-6.72 17.536-6.72 24.384 0 6.656 6.72 6.656 17.728 0 24.512L539.456 449.664zM590.272 500.864 565.888 476.352l330.432-333.504c6.656-6.784 17.536-6.784 24.32-0.064 6.656 6.784 6.656 17.728-0.128 24.512L590.272 500.864zM641.024 552.128 616.64 527.616 921.6 219.648c6.656-6.784 17.536-6.72 24.256 0s6.656 17.728 0 24.512L641.024 552.128z" p-id="2320"></path><path d="M351.296 816.64 332.8 797.952 502.784 626.24 435.968 558.72 265.92 730.432 247.744 712.064 207.744 733.12 74.048 951.744 113.856 992 328.576 858.24Z" p-id="2321"></path><path d="M227.904 32c-19.584 0-38.4 2.752-56.512 7.424C173.184 41.024 175.296 42.24 176.96 44.032l82.176 82.944c41.856 42.24 41.856 110.848 0 153.088-41.856 42.24-109.76 42.24-151.616 0L25.344 197.184C21.056 192.832 17.472 188.032 14.016 183.168 5.12 207.872 0 234.304 0 262.08 0 389.12 102.016 492.096 227.904 492.096c125.824 0 227.84-103.04 227.84-230.08C455.744 134.976 353.664 32 227.904 32z" p-id="2322"></path><path d="M924.224 942.016c49.408-49.984 49.408-131.008 0-180.992l-182.016-183.616-179.264 180.864 182.144 183.744C794.56 991.936 874.752 991.936 924.224 942.016zM802.752 819.328c20.48-20.672 53.632-20.672 74.112 0s20.48 54.208 0 74.944c-20.48 20.608-53.632 20.608-74.112 0C782.272 873.472 782.272 840 802.752 819.328z" p-id="2323"></path></svg>